<svg width="120" height="32" viewBox="0 0 120 32" fill="none" xmlns="http://www.w3.org/2000/svg">
  <path d="M20 8H4C2.89543 8 2 8.89543 2 10V22C2 23.1046 2.89543 24 4 24H20C21.1046 24 22 23.1046 22 22V10C22 8.89543 21.1046 8 20 8Z" stroke="white" stroke-width="2" stroke-linecap="round" stroke-linejoin="round"/>
  <path d="M12 20C14.2091 20 16 18.2091 16 16C16 13.7909 14.2091 12 12 12C9.79086 12 8 13.7909 8 16C8 18.2091 9.79086 20 12 20Z" stroke="white" stroke-width="2" stroke-linecap="round" stroke-linejoin="round"/>
  <text x="32" y="20" font-family="Arial" font-size="16" fill="white">Khedmah</text>
</svg> 